<svg xmlns="http://www.w3.org/2000/svg" xmlns:xlink="http://www.w3.org/1999/xlink" width="500" zoomAndPan="magnify" viewBox="0 0 375 374.999991" height="500" preserveAspectRatio="xMidYMid meet" version="1.0"><defs><clipPath id="id1"><path d="M 153 112.5 L 222 112.5 L 222 190 L 153 190 Z M 153 112.5 " clip-rule="nonzero"/></clipPath><clipPath id="id2"><path d="M 129.148438 183 L 245.785156 183 L 245.785156 262.5 L 129.148438 262.5 Z M 129.148438 183 " clip-rule="nonzero"/></clipPath></defs><rect x="-37.5" width="450" fill="#ffffff" y="-37.499999" height="449.999989" fill-opacity="1"/><rect x="-37.5" width="450" fill="#663a82" y="-37.499999" height="449.999989" fill-opacity="1"/><rect x="-37.5" width="450" fill="#ffffff" y="-37.499999" height="449.999989" fill-opacity="1"/><rect x="-37.5" width="450" fill="#663a82" y="-37.499999" height="449.999989" fill-opacity="1"/><g clip-path="url(#id1)"><path fill="#0c0b23" d="M 156.382812 151.546875 C 157.308594 150.527344 158.445312 150.457031 158.773438 150.457031 L 159.113281 150.46875 C 159.511719 152.109375 160.308594 155.25 160.71875 156.363281 C 161.210938 157.6875 163.285156 160.289062 164.375 158.472656 C 164.65625 158.003906 164.679688 157.441406 164.527344 156.914062 C 162.265625 149.121094 164.011719 137.003906 164.492188 135.585938 C 165.746094 131.824219 168.289062 127.171875 173.457031 125.039062 C 176.984375 123.574219 180.464844 125.695312 183.007812 128.097656 C 185.304688 130.277344 188.902344 130.382812 191.269531 128.285156 C 194.070312 125.800781 197.867188 123.539062 201.488281 125.039062 C 206.65625 127.171875 209.199219 131.824219 210.464844 135.585938 C 210.933594 137.003906 212.679688 149.121094 210.417969 156.914062 C 210.265625 157.441406 210.289062 158.003906 210.570312 158.472656 C 211.660156 160.289062 213.734375 157.6875 214.226562 156.363281 C 214.636719 155.25 215.433594 152.097656 215.84375 150.46875 L 216.125 150.457031 L 216.171875 150.457031 C 216.5 150.457031 217.648438 150.527344 218.5625 151.546875 C 219.664062 152.765625 220.085938 154.957031 219.792969 157.886719 C 219.40625 161.648438 218.140625 163.710938 216.21875 163.710938 C 215.761719 163.710938 215.433594 163.59375 215.433594 163.59375 L 214.589844 163.265625 L 214.167969 164.050781 C 214.039062 164.296875 201.066406 188.402344 187.53125 187.652344 L 187.472656 187.640625 L 187.414062 187.652344 C 173.878906 188.425781 160.90625 164.296875 160.777344 164.050781 L 160.355469 163.277344 L 159.535156 163.59375 C 159.523438 163.59375 159.195312 163.710938 158.726562 163.710938 C 156.804688 163.710938 155.539062 161.648438 155.164062 157.886719 C 154.859375 154.957031 155.28125 152.765625 156.382812 151.546875 Z M 158.726562 165.714844 C 158.960938 165.714844 159.183594 165.703125 159.371094 165.679688 C 161.632812 169.722656 173.46875 189.679688 186.792969 189.679688 C 187.015625 189.679688 187.25 189.667969 187.472656 189.65625 C 187.707031 189.667969 187.929688 189.679688 188.152344 189.679688 C 201.476562 189.679688 213.3125 169.722656 215.574219 165.679688 C 215.761719 165.703125 215.984375 165.714844 216.21875 165.714844 C 218.011719 165.714844 221.117188 164.730469 221.785156 158.097656 C 222.148438 154.523438 221.5625 151.875 220.050781 150.199219 C 219.089844 149.132812 217.953125 148.710938 217.132812 148.546875 C 217.226562 146.296875 217.238281 140.554688 215.433594 134.085938 C 214.121094 129.363281 208.988281 120 198.089844 114.867188 C 194.796875 113.320312 191.128906 112.5 187.472656 112.5 C 183.816406 112.5 180.148438 113.320312 176.855469 114.867188 C 165.957031 120 160.824219 129.363281 159.511719 134.085938 C 157.707031 140.554688 157.71875 146.296875 157.824219 148.546875 C 157.003906 148.710938 155.867188 149.132812 154.894531 150.199219 C 153.382812 151.875 152.796875 154.523438 153.160156 158.097656 C 153.828125 164.730469 156.933594 165.714844 158.726562 165.714844 " fill-opacity="1" fill-rule="nonzero"/></g><path fill="#0c0b23" d="M 187.472656 211.089844 C 186.324219 211.089844 185.398438 212.015625 185.398438 213.164062 C 185.398438 214.3125 186.324219 215.238281 187.472656 215.238281 C 188.621094 215.238281 189.546875 214.3125 189.546875 213.164062 C 189.546875 212.015625 188.621094 211.089844 187.472656 211.089844 " fill-opacity="1" fill-rule="nonzero"/><path fill="#0c0b23" d="M 187.472656 220.734375 C 186.324219 220.734375 185.398438 221.671875 185.398438 222.820312 C 185.398438 223.957031 186.324219 224.894531 187.472656 224.894531 C 188.621094 224.894531 189.546875 223.957031 189.546875 222.820312 C 189.546875 221.671875 188.621094 220.734375 187.472656 220.734375 " fill-opacity="1" fill-rule="nonzero"/><g clip-path="url(#id2)"><path fill="#0c0b23" d="M 205.71875 199.535156 C 204.488281 200.214844 203.058594 200.742188 201.546875 201.152344 C 201.441406 200.34375 201.289062 199.546875 201.078125 198.75 L 200.210938 195.5625 C 200.175781 195.398438 200 195.292969 199.835938 195.339844 L 199.273438 195.46875 C 196.003906 196.230469 192.992188 197.800781 190.484375 200.039062 L 190.132812 200.355469 C 190.109375 200.378906 190.074219 200.402344 190.039062 200.402344 L 189.183594 200.402344 C 189.207031 200.378906 189.242188 200.355469 189.277344 200.34375 L 190.402344 199.535156 C 195.347656 195.972656 199.859375 191.824219 203.820312 187.207031 L 205.050781 185.777344 L 208.191406 192.609375 C 209.480469 195.914062 206.351562 199.183594 205.71875 199.535156 Z M 194.785156 222.152344 C 192.757812 224.683594 190.695312 226.96875 188.644531 229.019531 C 188 229.664062 186.957031 229.664062 186.3125 229.019531 C 184.25 226.96875 182.1875 224.683594 180.171875 222.152344 C 174.675781 215.296875 170.867188 207.902344 168.195312 201.257812 C 168.21875 201.269531 168.230469 201.28125 168.253906 201.292969 C 169.742188 202.113281 171.453125 202.734375 173.246094 203.191406 C 173.210938 205.078125 173.445312 206.964844 173.984375 208.78125 L 174.722656 211.335938 C 174.769531 211.511719 174.945312 211.605469 175.121094 211.558594 C 178.847656 210.503906 182.234375 208.476562 184.917969 205.675781 C 184.953125 205.652344 184.988281 205.640625 185.023438 205.640625 L 189.921875 205.640625 C 189.96875 205.640625 190.003906 205.652344 190.027344 205.675781 C 192.710938 208.476562 196.097656 210.503906 199.835938 211.558594 C 200 211.605469 200.175781 211.511719 200.222656 211.335938 L 200.972656 208.78125 C 201.5 206.964844 201.734375 205.078125 201.699219 203.191406 C 203.492188 202.734375 205.214844 202.113281 206.691406 201.292969 C 206.714844 201.28125 206.738281 201.269531 206.75 201.257812 C 204.089844 207.902344 200.269531 215.296875 194.785156 222.152344 Z M 166.765625 192.609375 L 169.894531 185.777344 L 171.125 187.207031 C 175.085938 191.824219 179.597656 195.972656 184.542969 199.535156 L 185.667969 200.34375 C 185.703125 200.355469 185.738281 200.378906 185.773438 200.402344 L 184.90625 200.402344 C 184.871094 200.402344 184.835938 200.378906 184.8125 200.355469 L 184.460938 200.039062 C 181.964844 197.800781 178.941406 196.230469 175.671875 195.46875 L 175.109375 195.339844 C 174.945312 195.292969 174.78125 195.398438 174.734375 195.5625 L 173.878906 198.75 C 173.667969 199.546875 173.503906 200.34375 173.398438 201.152344 C 171.886719 200.742188 170.457031 200.214844 169.226562 199.535156 C 168.59375 199.183594 165.476562 195.914062 166.765625 192.609375 Z M 214.285156 193.347656 C 213.546875 193.300781 212.65625 193.242188 211.660156 193.171875 C 211.226562 193.136719 210.816406 193.207031 210.441406 193.371094 C 210.371094 192.867188 210.253906 192.351562 210.042969 191.835938 L 206.808594 184.78125 C 206.503906 184.113281 205.824219 183.667969 205.074219 183.667969 C 204.523438 183.667969 203.996094 183.914062 203.632812 184.335938 L 202.296875 185.894531 C 198.441406 190.394531 194.046875 194.4375 189.230469 197.894531 L 188.105469 198.703125 C 187.730469 198.972656 187.214844 198.972656 186.839844 198.703125 L 185.714844 197.894531 C 180.910156 194.4375 176.503906 190.394531 172.648438 185.894531 L 171.3125 184.335938 C 170.949219 183.914062 170.433594 183.667969 169.871094 183.667969 C 169.132812 183.667969 168.453125 184.113281 168.136719 184.78125 L 164.925781 191.789062 L 164.902344 191.835938 C 164.703125 192.351562 164.574219 192.867188 164.503906 193.371094 C 164.128906 193.207031 163.71875 193.136719 163.296875 193.171875 C 162.289062 193.242188 161.398438 193.300781 160.671875 193.347656 C 143.328125 194.203125 129.21875 207.386719 129.148438 224.730469 C 129.148438 224.824219 129.148438 224.90625 129.160156 224.988281 L 129.464844 229.113281 C 129.570312 230.53125 130.132812 231.890625 131.058594 232.980469 C 146.925781 251.554688 166.414062 262.5 187.472656 262.5 C 208.53125 262.5 228.019531 251.554688 243.886719 232.980469 C 244.824219 231.890625 245.375 230.53125 245.480469 229.113281 L 245.785156 224.988281 C 245.796875 224.90625 245.796875 224.824219 245.796875 224.730469 C 245.726562 207.386719 231.628906 194.203125 214.285156 193.347656 " fill-opacity="1" fill-rule="nonzero"/></g><path fill="#0c0b23" d="M 187.472656 169.605469 C 193.378906 169.605469 198.171875 171.878906 198.171875 174.679688 C 198.171875 176.085938 196.671875 178.828125 194.492188 180.339844 C 193.683594 180.890625 192.464844 180.902344 191.621094 180.386719 C 191.082031 180.046875 190.390625 179.730469 189.746094 179.460938 C 188.328125 178.863281 186.617188 178.875 185.210938 179.460938 C 184.53125 179.753906 183.828125 180.082031 183.289062 180.433594 C 182.398438 181.019531 181.039062 180.949219 180.242188 180.28125 C 178.566406 178.839844 176.773438 175.675781 176.773438 174.679688 C 176.773438 171.878906 181.566406 169.605469 187.472656 169.605469 Z M 187.472656 185.226562 C 194.527344 185.226562 200.246094 180.058594 200.246094 174.679688 C 200.246094 169.289062 194.527344 164.929688 187.472656 164.929688 C 180.417969 164.929688 174.699219 169.289062 174.699219 174.679688 C 174.699219 180.058594 180.417969 185.226562 187.472656 185.226562 " fill-opacity="1" fill-rule="nonzero"/><path fill="#0c0b23" d="M 180.851562 175.933594 C 182.890625 176.859375 185 177.351562 187.144531 177.398438 C 187.25 177.398438 187.355469 177.398438 187.449219 177.398438 C 189.757812 177.398438 192.03125 176.882812 194.222656 175.851562 C 194.832031 175.570312 195.136719 174.890625 194.960938 174.257812 C 194.75 173.449219 189.195312 172.160156 187.167969 172.101562 C 185.398438 172.066406 180.3125 173.53125 180.101562 174.328125 L 180.101562 174.339844 C 179.9375 174.984375 180.242188 175.664062 180.851562 175.933594 " fill-opacity="1" fill-rule="nonzero"/></svg>