<svg xmlns="http://www.w3.org/2000/svg" xmlns:xlink="http://www.w3.org/1999/xlink" width="50" zoomAndPan="magnify" viewBox="0 0 37.5 37.499999" height="50" preserveAspectRatio="xMidYMid meet" version="1.0"><defs><g/><clipPath id="id1"><path d="M 0 0 L 37.007812 0 L 37.007812 37.007812 L 0 37.007812 Z M 0 0 " clip-rule="nonzero"/></clipPath><clipPath id="id2"><path d="M 12.636719 16.859375 L 16 16.859375 L 16 20 L 12.636719 20 Z M 12.636719 16.859375 " clip-rule="nonzero"/></clipPath><clipPath id="id3"><path d="M 14.496094 16.859375 C 13.546875 16.859375 13.605469 17.273438 13.605469 17.273438 L 13.605469 17.703125 L 14.515625 17.703125 L 14.515625 17.832031 L 13.246094 17.832031 C 13.246094 17.832031 12.636719 17.761719 12.636719 18.726562 C 12.636719 19.691406 13.167969 19.660156 13.167969 19.660156 L 13.488281 19.660156 L 13.488281 19.210938 C 13.488281 19.210938 13.46875 18.675781 14.007812 18.675781 L 14.910156 18.675781 C 14.910156 18.675781 15.414062 18.683594 15.414062 18.183594 L 15.414062 17.359375 C 15.414062 17.359375 15.492188 16.859375 14.496094 16.859375 Z M 13.996094 17.148438 C 14.085938 17.148438 14.160156 17.21875 14.160156 17.3125 C 14.160156 17.402344 14.085938 17.476562 13.996094 17.476562 C 13.90625 17.476562 13.835938 17.402344 13.835938 17.3125 C 13.835938 17.21875 13.90625 17.148438 13.996094 17.148438 Z M 13.996094 17.148438 " clip-rule="nonzero"/></clipPath><linearGradient x1="0.00416824" gradientTransform="matrix(2.777597, 0, 0, 2.801183, 12.638436, 16.857527)" y1="-0.00405741" x2="1.027757" gradientUnits="userSpaceOnUse" y2="1.01158" id="id4"><stop stop-opacity="1" stop-color="rgb(21.998596%, 49.398804%, 72.198486%)" offset="0"/><stop stop-opacity="1" stop-color="rgb(21.99707%, 49.383545%, 72.171021%)" offset="0.125"/><stop stop-opacity="1" stop-color="rgb(21.986389%, 49.269104%, 71.974182%)" offset="0.140625"/><stop stop-opacity="1" stop-color="rgb(21.966553%, 49.072266%, 71.633911%)" offset="0.15625"/><stop stop-opacity="1" stop-color="rgb(21.948242%, 48.875427%, 71.29364%)" offset="0.171875"/><stop stop-opacity="1" stop-color="rgb(21.928406%, 48.678589%, 70.953369%)" offset="0.1875"/><stop stop-opacity="1" stop-color="rgb(21.910095%, 48.48175%, 70.611572%)" offset="0.203125"/><stop stop-opacity="1" stop-color="rgb(21.890259%, 48.286438%, 70.271301%)" offset="0.21875"/><stop stop-opacity="1" stop-color="rgb(21.870422%, 48.0896%, 69.93103%)" offset="0.234375"/><stop stop-opacity="1" stop-color="rgb(21.852112%, 47.892761%, 69.590759%)" offset="0.25"/><stop stop-opacity="1" stop-color="rgb(21.832275%, 47.695923%, 69.250488%)" offset="0.265625"/><stop stop-opacity="1" stop-color="rgb(21.813965%, 47.499084%, 68.908691%)" offset="0.28125"/><stop stop-opacity="1" stop-color="rgb(21.794128%, 47.302246%, 68.56842%)" offset="0.296875"/><stop stop-opacity="1" stop-color="rgb(21.775818%, 47.105408%, 68.228149%)" offset="0.3125"/><stop stop-opacity="1" stop-color="rgb(21.755981%, 46.908569%, 67.887878%)" offset="0.328125"/><stop stop-opacity="1" stop-color="rgb(21.736145%, 46.711731%, 67.546082%)" offset="0.34375"/><stop stop-opacity="1" stop-color="rgb(21.717834%, 46.514893%, 67.205811%)" offset="0.359375"/><stop stop-opacity="1" stop-color="rgb(21.697998%, 46.31958%, 66.86554%)" offset="0.375"/><stop stop-opacity="1" stop-color="rgb(21.679688%, 46.122742%, 66.525269%)" offset="0.390625"/><stop stop-opacity="1" stop-color="rgb(21.659851%, 45.925903%, 66.184998%)" offset="0.40625"/><stop stop-opacity="1" stop-color="rgb(21.641541%, 45.729065%, 65.843201%)" offset="0.421875"/><stop stop-opacity="1" stop-color="rgb(21.621704%, 45.532227%, 65.50293%)" offset="0.4375"/><stop stop-opacity="1" stop-color="rgb(21.601868%, 45.335388%, 65.162659%)" offset="0.453125"/><stop stop-opacity="1" stop-color="rgb(21.583557%, 45.13855%, 64.822388%)" offset="0.46875"/><stop stop-opacity="1" stop-color="rgb(21.563721%, 44.941711%, 64.482117%)" offset="0.484375"/><stop stop-opacity="1" stop-color="rgb(21.54541%, 44.744873%, 64.14032%)" offset="0.494335"/><stop stop-opacity="1" stop-color="rgb(21.536255%, 44.647217%, 63.970947%)" offset="0.5"/><stop stop-opacity="1" stop-color="rgb(21.525574%, 44.548035%, 63.800049%)" offset="0.505665"/><stop stop-opacity="1" stop-color="rgb(21.516418%, 44.450378%, 63.630676%)" offset="0.515625"/><stop stop-opacity="1" stop-color="rgb(21.505737%, 44.352722%, 63.459778%)" offset="0.53125"/><stop stop-opacity="1" stop-color="rgb(21.487427%, 44.155884%, 63.119507%)" offset="0.546875"/><stop stop-opacity="1" stop-color="rgb(21.46759%, 43.959045%, 62.77771%)" offset="0.5625"/><stop stop-opacity="1" stop-color="rgb(21.44928%, 43.762207%, 62.437439%)" offset="0.578125"/><stop stop-opacity="1" stop-color="rgb(21.429443%, 43.565369%, 62.097168%)" offset="0.59375"/><stop stop-opacity="1" stop-color="rgb(21.411133%, 43.36853%, 61.756897%)" offset="0.609375"/><stop stop-opacity="1" stop-color="rgb(21.391296%, 43.171692%, 61.416626%)" offset="0.625"/><stop stop-opacity="1" stop-color="rgb(21.37146%, 42.974854%, 61.074829%)" offset="0.640625"/><stop stop-opacity="1" stop-color="rgb(21.353149%, 42.778015%, 60.734558%)" offset="0.65625"/><stop stop-opacity="1" stop-color="rgb(21.333313%, 42.582703%, 60.394287%)" offset="0.671875"/><stop stop-opacity="1" stop-color="rgb(21.315002%, 42.385864%, 60.054016%)" offset="0.6875"/><stop stop-opacity="1" stop-color="rgb(21.295166%, 42.189026%, 59.713745%)" offset="0.703125"/><stop stop-opacity="1" stop-color="rgb(21.276855%, 41.992188%, 59.371948%)" offset="0.71875"/><stop stop-opacity="1" stop-color="rgb(21.257019%, 41.795349%, 59.031677%)" offset="0.734375"/><stop stop-opacity="1" stop-color="rgb(21.237183%, 41.598511%, 58.691406%)" offset="0.75"/><stop stop-opacity="1" stop-color="rgb(21.218872%, 41.401672%, 58.351135%)" offset="0.765625"/><stop stop-opacity="1" stop-color="rgb(21.203613%, 41.25061%, 58.09021%)" offset="0.78125"/><stop stop-opacity="1" stop-color="rgb(21.199036%, 41.19873%, 57.998657%)" offset="0.8125"/><stop stop-opacity="1" stop-color="rgb(21.199036%, 41.19873%, 57.998657%)" offset="0.875"/><stop stop-opacity="1" stop-color="rgb(21.199036%, 41.19873%, 57.998657%)" offset="1"/></linearGradient><clipPath id="id5"><path d="M 13 17 L 16.386719 17 L 16.386719 20.609375 L 13 20.609375 Z M 13 17 " clip-rule="nonzero"/></clipPath><clipPath id="id6"><path d="M 14.523438 20.605469 C 15.476562 20.605469 15.417969 20.191406 15.417969 20.191406 L 15.414062 19.761719 L 14.507812 19.761719 L 14.507812 19.632812 L 15.777344 19.632812 C 15.777344 19.632812 16.382812 19.703125 16.382812 18.738281 C 16.382812 17.773438 15.851562 17.804688 15.851562 17.804688 L 15.535156 17.804688 L 15.535156 18.253906 C 15.535156 18.253906 15.554688 18.789062 15.011719 18.789062 L 14.113281 18.789062 C 14.113281 18.789062 13.609375 18.78125 13.609375 19.28125 L 13.609375 20.105469 C 13.609375 20.105469 13.53125 20.605469 14.523438 20.605469 Z M 15.023438 20.316406 C 14.933594 20.316406 14.863281 20.246094 14.863281 20.152344 C 14.863281 20.0625 14.933594 19.988281 15.023438 19.988281 C 15.117188 19.988281 15.1875 20.0625 15.1875 20.152344 C 15.1875 20.246094 15.117188 20.316406 15.023438 20.316406 Z M 15.023438 20.316406 " clip-rule="nonzero"/></clipPath><linearGradient x1="-0.0326454" gradientTransform="matrix(2.777682, 0, 0, 2.801197, 13.606453, 17.805704)" y1="-0.00636602" x2="1.013977" gradientUnits="userSpaceOnUse" y2="0.985247" id="id7"><stop stop-opacity="1" stop-color="rgb(100%, 87.799072%, 32.199097%)" offset="0"/><stop stop-opacity="1" stop-color="rgb(100%, 87.799072%, 32.199097%)" offset="0.125"/><stop stop-opacity="1" stop-color="rgb(100%, 87.799072%, 32.199097%)" offset="0.1875"/><stop stop-opacity="1" stop-color="rgb(100%, 87.759399%, 32.15332%)" offset="0.21875"/><stop stop-opacity="1" stop-color="rgb(100%, 87.590027%, 31.959534%)" offset="0.234375"/><stop stop-opacity="1" stop-color="rgb(100%, 87.332153%, 31.661987%)" offset="0.25"/><stop stop-opacity="1" stop-color="rgb(100%, 87.07428%, 31.365967%)" offset="0.265625"/><stop stop-opacity="1" stop-color="rgb(100%, 86.816406%, 31.06842%)" offset="0.28125"/><stop stop-opacity="1" stop-color="rgb(100%, 86.558533%, 30.7724%)" offset="0.296875"/><stop stop-opacity="1" stop-color="rgb(100%, 86.300659%, 30.474854%)" offset="0.3125"/><stop stop-opacity="1" stop-color="rgb(100%, 86.04126%, 30.177307%)" offset="0.328125"/><stop stop-opacity="1" stop-color="rgb(100%, 85.783386%, 29.881287%)" offset="0.34375"/><stop stop-opacity="1" stop-color="rgb(100%, 85.525513%, 29.58374%)" offset="0.359375"/><stop stop-opacity="1" stop-color="rgb(100%, 85.267639%, 29.28772%)" offset="0.375"/><stop stop-opacity="1" stop-color="rgb(100%, 85.009766%, 28.990173%)" offset="0.390625"/><stop stop-opacity="1" stop-color="rgb(100%, 84.751892%, 28.694153%)" offset="0.40625"/><stop stop-opacity="1" stop-color="rgb(100%, 84.494019%, 28.396606%)" offset="0.421875"/><stop stop-opacity="1" stop-color="rgb(100%, 84.236145%, 28.100586%)" offset="0.4375"/><stop stop-opacity="1" stop-color="rgb(100%, 83.978271%, 27.80304%)" offset="0.453125"/><stop stop-opacity="1" stop-color="rgb(100%, 83.720398%, 27.505493%)" offset="0.46875"/><stop stop-opacity="1" stop-color="rgb(100%, 83.460999%, 27.209473%)" offset="0.482837"/><stop stop-opacity="1" stop-color="rgb(100%, 83.332825%, 27.061462%)" offset="0.484375"/><stop stop-opacity="1" stop-color="rgb(100%, 83.203125%, 26.911926%)" offset="0.5"/><stop stop-opacity="1" stop-color="rgb(100%, 82.945251%, 26.615906%)" offset="0.515625"/><stop stop-opacity="1" stop-color="rgb(100%, 82.687378%, 26.318359%)" offset="0.517163"/><stop stop-opacity="1" stop-color="rgb(100%, 82.559204%, 26.170349%)" offset="0.53125"/><stop stop-opacity="1" stop-color="rgb(100%, 82.429504%, 26.022339%)" offset="0.546875"/><stop stop-opacity="1" stop-color="rgb(100%, 82.171631%, 25.724792%)" offset="0.5625"/><stop stop-opacity="1" stop-color="rgb(100%, 81.913757%, 25.428772%)" offset="0.578125"/><stop stop-opacity="1" stop-color="rgb(100%, 81.655884%, 25.131226%)" offset="0.59375"/><stop stop-opacity="1" stop-color="rgb(100%, 81.39801%, 24.835205%)" offset="0.609375"/><stop stop-opacity="1" stop-color="rgb(100%, 81.138611%, 24.537659%)" offset="0.625"/><stop stop-opacity="1" stop-color="rgb(100%, 80.880737%, 24.240112%)" offset="0.640625"/><stop stop-opacity="1" stop-color="rgb(100%, 80.622864%, 23.944092%)" offset="0.65625"/><stop stop-opacity="1" stop-color="rgb(100%, 80.36499%, 23.646545%)" offset="0.671875"/><stop stop-opacity="1" stop-color="rgb(100%, 80.107117%, 23.350525%)" offset="0.6875"/><stop stop-opacity="1" stop-color="rgb(100%, 79.849243%, 23.052979%)" offset="0.703125"/><stop stop-opacity="1" stop-color="rgb(100%, 79.59137%, 22.756958%)" offset="0.71875"/><stop stop-opacity="1" stop-color="rgb(100%, 79.333496%, 22.459412%)" offset="0.734375"/><stop stop-opacity="1" stop-color="rgb(100%, 79.075623%, 22.163391%)" offset="0.75"/><stop stop-opacity="1" stop-color="rgb(100%, 78.816223%, 21.865845%)" offset="0.765625"/><stop stop-opacity="1" stop-color="rgb(100%, 78.55835%, 21.568298%)" offset="0.78125"/><stop stop-opacity="1" stop-color="rgb(100%, 78.300476%, 21.272278%)" offset="0.796875"/><stop stop-opacity="1" stop-color="rgb(100%, 78.042603%, 20.974731%)" offset="0.8125"/><stop stop-opacity="1" stop-color="rgb(100%, 77.784729%, 20.678711%)" offset="0.828125"/><stop stop-opacity="1" stop-color="rgb(100%, 77.526855%, 20.381165%)" offset="0.84375"/><stop stop-opacity="1" stop-color="rgb(100%, 77.268982%, 20.085144%)" offset="0.859375"/><stop stop-opacity="1" stop-color="rgb(100%, 77.011108%, 19.787598%)" offset="0.875"/><stop stop-opacity="1" stop-color="rgb(100%, 76.753235%, 19.491577%)" offset="0.890625"/><stop stop-opacity="1" stop-color="rgb(100%, 76.560974%, 19.270325%)" offset="0.90625"/><stop stop-opacity="1" stop-color="rgb(100%, 76.499939%, 19.198608%)" offset="0.9375"/><stop stop-opacity="1" stop-color="rgb(100%, 76.499939%, 19.198608%)" offset="1"/></linearGradient></defs><g clip-path="url(#id1)"><path fill="#ffffff" d="M 0 0 L 37.5 0 L 37.5 45 L 0 45 Z M 0 0 " fill-opacity="1" fill-rule="nonzero"/><path fill="#545454" d="M 0 0 L 37.5 0 L 37.5 37.5 L 0 37.5 Z M 0 0 " fill-opacity="1" fill-rule="nonzero"/><path fill="#ffffff" d="M 0 0 L 37.5 0 L 37.5 37.5 L 0 37.5 Z M 0 0 " fill-opacity="1" fill-rule="nonzero"/><path fill="#545454" d="M 0 0 L 37.5 0 L 37.5 37.5 L 0 37.5 Z M 0 0 " fill-opacity="1" fill-rule="nonzero"/></g><g clip-path="url(#id2)"><g clip-path="url(#id3)"><path fill="url(#id4)" d="M 12.636719 16.859375 L 12.636719 19.691406 L 15.492188 19.691406 L 15.492188 16.859375 Z M 12.636719 16.859375 " fill-rule="nonzero"/></g></g><g clip-path="url(#id5)"><g clip-path="url(#id6)"><path fill="url(#id7)" d="M 13.53125 17.773438 L 13.53125 20.605469 L 16.382812 20.605469 L 16.382812 17.773438 Z M 13.53125 17.773438 " fill-rule="nonzero"/></g></g><g fill="#ffffff" fill-opacity="1"><g transform="translate(17.439659, 19.537497)"><g><path d="M 1.21875 -1.109375 C 1.21875 -0.953125 1.160156 -0.832031 1.046875 -0.75 C 0.941406 -0.664062 0.785156 -0.625 0.578125 -0.625 L 0.40625 -0.625 L 0.40625 0 L 0.21875 0 L 0.21875 -1.578125 L 0.625 -1.578125 C 1.019531 -1.578125 1.21875 -1.421875 1.21875 -1.109375 Z M 0.40625 -0.78125 L 0.5625 -0.78125 C 0.726562 -0.78125 0.847656 -0.804688 0.921875 -0.859375 C 0.992188 -0.910156 1.03125 -0.992188 1.03125 -1.109375 C 1.03125 -1.210938 0.992188 -1.289062 0.921875 -1.34375 C 0.847656 -1.394531 0.742188 -1.421875 0.609375 -1.421875 L 0.40625 -1.421875 Z M 0.40625 -0.78125 "/></g></g></g><g fill="#ffffff" fill-opacity="1"><g transform="translate(18.763936, 19.537497)"><g><path d="M 0 -1.171875 L 0.1875 -1.171875 L 0.453125 -0.5 C 0.503906 -0.351562 0.539062 -0.242188 0.5625 -0.171875 C 0.570312 -0.210938 0.59375 -0.273438 0.625 -0.359375 C 0.65625 -0.453125 0.753906 -0.722656 0.921875 -1.171875 L 1.109375 -1.171875 L 0.59375 0.15625 C 0.550781 0.289062 0.492188 0.382812 0.421875 0.4375 C 0.359375 0.5 0.273438 0.53125 0.171875 0.53125 C 0.117188 0.53125 0.0664062 0.523438 0.015625 0.515625 L 0.015625 0.375 C 0.0546875 0.375 0.101562 0.375 0.15625 0.375 C 0.269531 0.375 0.351562 0.304688 0.40625 0.171875 L 0.484375 0 Z M 0 -1.171875 "/></g></g></g><g fill="#ffffff" fill-opacity="1"><g transform="translate(19.872333, 19.537497)"><g><path d="M 0.5625 -0.125 C 0.601562 -0.125 0.632812 -0.125 0.65625 -0.125 C 0.6875 -0.132812 0.710938 -0.140625 0.734375 -0.140625 L 0.734375 -0.015625 C 0.710938 -0.00390625 0.679688 0 0.640625 0 C 0.609375 0.0078125 0.578125 0.015625 0.546875 0.015625 C 0.316406 0.015625 0.203125 -0.101562 0.203125 -0.34375 L 0.203125 -1.046875 L 0.03125 -1.046875 L 0.03125 -1.125 L 0.203125 -1.203125 L 0.28125 -1.453125 L 0.375 -1.453125 L 0.375 -1.171875 L 0.71875 -1.171875 L 0.71875 -1.046875 L 0.375 -1.046875 L 0.375 -0.34375 C 0.375 -0.269531 0.390625 -0.210938 0.421875 -0.171875 C 0.460938 -0.140625 0.507812 -0.125 0.5625 -0.125 Z M 0.5625 -0.125 "/></g></g></g><g fill="#ffffff" fill-opacity="1"><g transform="translate(20.648856, 19.537497)"><g><path d="M 1 0 L 1 -0.765625 C 1 -0.859375 0.972656 -0.925781 0.921875 -0.96875 C 0.878906 -1.019531 0.8125 -1.046875 0.71875 -1.046875 C 0.59375 -1.046875 0.503906 -1.007812 0.453125 -0.9375 C 0.398438 -0.875 0.375 -0.765625 0.375 -0.609375 L 0.375 0 L 0.1875 0 L 0.1875 -1.671875 L 0.375 -1.671875 L 0.375 -1.171875 C 0.375 -1.109375 0.367188 -1.054688 0.359375 -1.015625 L 0.375 -1.015625 C 0.40625 -1.066406 0.453125 -1.109375 0.515625 -1.140625 C 0.585938 -1.179688 0.664062 -1.203125 0.75 -1.203125 C 0.882812 -1.203125 0.988281 -1.164062 1.0625 -1.09375 C 1.132812 -1.03125 1.171875 -0.921875 1.171875 -0.765625 L 1.171875 0 Z M 1 0 "/></g></g></g><g fill="#ffffff" fill-opacity="1"><g transform="translate(21.998909, 19.537497)"><g><path d="M 1.203125 -0.59375 C 1.203125 -0.394531 1.15625 -0.242188 1.0625 -0.140625 C 0.96875 -0.0351562 0.832031 0.015625 0.65625 0.015625 C 0.550781 0.015625 0.457031 -0.00390625 0.375 -0.046875 C 0.289062 -0.0976562 0.226562 -0.171875 0.1875 -0.265625 C 0.144531 -0.359375 0.125 -0.46875 0.125 -0.59375 C 0.125 -0.78125 0.171875 -0.925781 0.265625 -1.03125 C 0.359375 -1.144531 0.492188 -1.203125 0.671875 -1.203125 C 0.835938 -1.203125 0.96875 -1.144531 1.0625 -1.03125 C 1.15625 -0.925781 1.203125 -0.78125 1.203125 -0.59375 Z M 0.3125 -0.59375 C 0.3125 -0.4375 0.335938 -0.316406 0.390625 -0.234375 C 0.453125 -0.160156 0.546875 -0.125 0.671875 -0.125 C 0.785156 -0.125 0.867188 -0.160156 0.921875 -0.234375 C 0.984375 -0.316406 1.015625 -0.4375 1.015625 -0.59375 C 1.015625 -0.738281 0.984375 -0.847656 0.921875 -0.921875 C 0.867188 -1.003906 0.78125 -1.046875 0.65625 -1.046875 C 0.539062 -1.046875 0.453125 -1.003906 0.390625 -0.921875 C 0.335938 -0.847656 0.3125 -0.738281 0.3125 -0.59375 Z M 0.3125 -0.59375 "/></g></g></g><g fill="#ffffff" fill-opacity="1"><g transform="translate(23.327482, 19.537497)"><g><path d="M 1 0 L 1 -0.765625 C 1 -0.859375 0.972656 -0.925781 0.921875 -0.96875 C 0.878906 -1.019531 0.8125 -1.046875 0.71875 -1.046875 C 0.601562 -1.046875 0.515625 -1.007812 0.453125 -0.9375 C 0.398438 -0.875 0.375 -0.769531 0.375 -0.625 L 0.375 0 L 0.1875 0 L 0.1875 -1.171875 L 0.328125 -1.171875 L 0.359375 -1.015625 L 0.375 -1.015625 C 0.40625 -1.078125 0.453125 -1.125 0.515625 -1.15625 C 0.585938 -1.1875 0.664062 -1.203125 0.75 -1.203125 C 0.882812 -1.203125 0.988281 -1.164062 1.0625 -1.09375 C 1.132812 -1.03125 1.171875 -0.921875 1.171875 -0.765625 L 1.171875 0 Z M 1 0 "/></g></g></g></svg>